<?xml version="1.0" standalone="no"?>
<!DOCTYPE svg PUBLIC "-//W3C//DTD SVG 20010904//EN"
 "http://www.w3.org/TR/2001/REC-SVG-20010904/DTD/svg10.dtd">
<svg version="1.0" xmlns="http://www.w3.org/2000/svg"
 width="510.000000pt" height="594.000000pt" viewBox="0 0 510.000000 594.000000"
 preserveAspectRatio="xMidYMid meet">
<metadata>
Created by potrace 1.12, written by Peter Selinger 2001-2015
</metadata>
<g transform="translate(0.000000,594.000000) scale(0.100000,-0.100000)"
fill="#000000" stroke="none">
<path d="M1160 5934 c-47 -6 -125 -32 -181 -60 -122 -61 -224 -184 -269 -325
-85 -263 59 -568 314 -664 l49 -19 -39 -34 c-212 -186 -342 -325 -460 -492
-239 -336 -388 -719 -446 -1140 -19 -145 -17 -519 5 -660 42 -269 117 -511
232 -745 116 -238 253 -435 430 -623 597 -631 1468 -900 2339 -721 347 71 746
264 1043 504 418 336 739 854 857 1381 78 347 81 720 7 1075 -95 459 -323 883
-662 1230 l-94 97 42 47 c52 59 98 151 118 236 70 297 -130 604 -430 660 -81
15 -205 6 -287 -21 l-67 -22 -29 23 c-16 13 -70 60 -119 104 -135 121 -166
145 -191 151 -26 7 -66 -16 -83 -48 -7 -12 -31 -118 -55 -235 -24 -118 -48
-222 -53 -232 -6 -10 -29 -26 -52 -35 -38 -15 -51 -16 -153 -2 -186 25 -293
28 -477 16 -210 -14 -230 -9 -250 63 -35 131 -111 362 -122 370 -32 22 -95 47
-122 47 -17 0 -70 -20 -119 -44 -50 -25 -111 -50 -138 -56 l-48 -12 -52 47
c-58 52 -158 106 -228 123 -55 13 -163 21 -210 16z m213 -84 c69 -22 163 -79
211 -129 24 -25 38 -31 72 -31 24 0 55 5 70 10 15 6 28 9 30 7 2 -1 19 -38 38
-80 l36 -77 -50 -31 c-28 -17 -55 -39 -60 -49 -6 -10 -10 -50 -10 -88 0 -37
-7 -91 -15 -119 -14 -48 -18 -52 -73 -73 -113 -45 -393 -202 -442 -248 -31
-29 -72 -26 -153 13 -116 54 -203 148 -249 267 -25 65 -34 196 -19 267 35 165
183 323 341 365 81 22 195 20 273 -4z m2001 -120 c22 -68 24 -85 16 -143 -12
-81 -33 -145 -73 -220 -28 -54 -29 -60 -17 -96 7 -21 15 -43 19 -48 3 -5 49
-24 101 -42 137 -48 380 -169 505 -252 542 -357 910 -888 1049 -1516 45 -199
59 -357 53 -583 -6 -228 -22 -352 -72 -546 -149 -580 -516 -1094 -1022 -1427
-99 -65 -301 -177 -319 -177 -5 0 36 24 91 53 654 346 1112 953 1254 1662 37
183 46 278 46 485 0 207 -9 302 -46 485 -148 737 -649 1377 -1330 1699 -237
112 -464 178 -744 218 -134 18 -474 16 -620 -5 -790 -115 -1455 -585 -1821
-1289 -35 -68 -64 -120 -64 -115 0 13 80 168 133 257 304 508 774 885 1334
1070 l148 48 9 42 c8 38 6 48 -27 108 -19 37 -61 123 -92 192 l-56 125 40 37
c45 42 89 50 140 24 24 -13 33 -33 74 -168 25 -84 52 -175 59 -202 12 -45 17
-50 70 -77 57 -29 59 -29 145 -19 132 15 393 12 528 -6 66 -9 134 -16 150 -17
44 -1 139 48 153 79 7 14 30 113 52 219 22 107 47 212 55 232 l16 38 20 -23
c10 -13 30 -59 43 -102z m180 -88 c38 -35 80 -65 92 -68 12 -3 55 6 96 19 102
36 177 42 266 23 100 -21 181 -67 251 -142 100 -106 136 -210 129 -368 -3 -72
-10 -103 -31 -151 -30 -64 -101 -165 -117 -165 -6 0 -38 23 -72 51 -158 128
-488 318 -662 380 -36 13 -66 28 -66 32 0 5 11 37 26 72 26 68 25 83 -14 128
-13 15 -14 25 -4 68 15 63 15 159 1 196 l-10 28 23 -21 c13 -11 54 -48 92 -82z
m-1649 -241 c33 -68 41 -92 32 -99 -7 -5 -50 -21 -96 -35 l-83 -26 6 22 c3 12
9 57 13 100 6 76 7 79 42 103 20 13 37 24 38 24 2 0 23 -40 48 -89z m848 -171
c322 -24 588 -95 872 -234 253 -124 434 -254 635 -456 372 -373 603 -849 670
-1380 16 -121 16 -416 1 -545 -16 -135 -54 -304 -103 -455 -39 -123 -41 -126
-105 -188 -148 -143 -344 -276 -553 -374 -69 -33 -137 -65 -153 -73 -25 -13
-27 -13 -18 4 6 10 40 58 77 107 91 121 126 198 132 288 5 90 -18 154 -88 248
-149 198 -373 306 -730 353 -190 25 -556 37 -1015 33 -438 -4 -440 -4 -537
-31 -143 -38 -292 -106 -420 -191 l-26 -17 -40 58 c-170 250 -296 583 -348
918 -23 151 -23 470 0 620 52 334 165 635 336 900 58 89 62 93 152 142 287
158 651 261 978 276 135 6 158 6 283 -3z m308 -2760 c380 -19 581 -60 764
-154 96 -49 224 -171 270 -256 58 -108 35 -223 -72 -351 -24 -30 -64 -88 -90
-129 -68 -113 -107 -156 -168 -186 -50 -24 -63 -26 -138 -22 -72 4 -101 12
-232 65 -174 70 -299 111 -475 152 -189 45 -276 54 -424 48 -156 -7 -233 -25
-427 -102 -155 -61 -314 -109 -401 -119 -108 -14 -157 17 -249 154 -24 36 -80
104 -126 152 -115 122 -128 182 -62 297 39 67 154 189 234 246 129 91 317 171
472 199 96 17 821 21 1124 6z m-419 -920 c163 -16 469 -90 613 -150 l50 -21
-180 5 c-136 3 -213 11 -315 30 -193 36 -431 109 -413 127 4 4 33 10 63 12 30
2 60 4 65 5 6 1 58 -3 117 -8z"/>
<path d="M3578 4002 c-96 -126 -221 -256 -356 -369 -64 -54 -150 -126 -190
-161 -40 -35 -85 -67 -99 -73 -38 -14 -73 14 -100 82 -20 49 -73 327 -88 459
-11 104 -17 132 -25 123 -4 -4 -22 -94 -39 -199 -34 -208 -50 -272 -81 -321
-23 -39 -39 -41 -67 -10 -25 27 -40 78 -48 172 -12 143 -19 143 -25 0 -7 -153
-20 -209 -57 -249 -47 -51 -80 -35 -317 159 -238 194 -332 256 -460 301 -39
14 -39 14 -22 -5 10 -11 68 -50 129 -87 89 -54 137 -93 232 -187 66 -66 107
-110 90 -99 -95 62 -559 283 -754 358 -80 31 -153 34 -190 7 -66 -50 -101
-205 -82 -366 25 -215 77 -343 182 -450 105 -106 219 -152 447 -182 341 -45
623 22 698 166 33 65 8 205 -47 255 -30 27 -22 34 19 17 28 -11 59 -14 123
-11 97 6 122 16 144 58 9 17 19 30 23 30 4 0 41 -28 82 -61 107 -88 147 -112
181 -107 28 4 29 3 29 -41 0 -95 77 -188 203 -246 108 -50 179 -61 296 -46
348 45 611 203 727 436 49 99 64 162 71 305 7 141 -5 185 -54 211 -40 21 -128
14 -223 -19 -101 -35 -356 -133 -491 -189 l-97 -40 62 71 c79 91 124 154 173
241 35 62 77 155 70 155 -1 0 -32 -40 -69 -88z m-2224 -282 c32 -38 33 -60 5
-60 -32 0 -105 -78 -118 -127 -6 -22 -8 -49 -5 -59 6 -17 5 -17 -9 1 -26 35
-47 114 -47 175 0 66 12 105 42 137 l21 22 42 -29 c24 -16 54 -43 69 -60z
m2526 -16 c-19 -8 -75 -41 -125 -74 -112 -74 -169 -91 -220 -67 -19 9 -35 21
-35 25 0 46 228 130 355 131 l60 0 -35 -15z"/>
</g>
</svg>
